{"scene":0,"asset":{"generator":"ImageToStl.com","version":"2.0"},"scenes":[{"name":"Scene","nodes":[0]}],"nodes":[{"name":"Node0","children":[1,2,3,4,5]},{"name":"Node1","mesh":0},{"name":"Node2","mesh":1},{"name":"Node3","mesh":2},{"name":"Node4","mesh":3},{"name":"Node5","mesh":4}],"materials":[{"name":"Glass","pbrMetallicRoughness":{"baseColorFactor":[0.8,0.7647059,0.45490196,1.0],"metallicFactor":0.0,"roughnessFactor":1.0},"doubleSided":true},{"name":"Metal","pbrMetallicRoughness":{"baseColorFactor":[0.38431373,0.38431373,0.38431373,1.0],"metallicFactor":0.0,"roughnessFactor":1.0},"doubleSided":true},{"name":"Material.002","pbrMetallicRoughness":{"baseColorFactor":[0.8,0.8,0.8,1.0],"metallicFactor":0.0,"roughnessFactor":1.0},"doubleSided":true},{"name":"Material.001","pbrMetallicRoughness":{"baseColorFactor":[0.8,0.8,0.8,1.0],"metallicFactor":0.0,"roughnessFactor":1.0},"doubleSided":true}],"meshes":[{"name":"Mesh0","primitives":[{"indices":1,"material":0,"attributes":{"POSITION":0}}]},{"name":"Mesh0","primitives":[{"indices":3,"material":2,"attributes":{"POSITION":2}}]},{"name":"Mesh0","primitives":[{"indices":5,"material":1,"attributes":{"POSITION":4}}]},{"name":"Mesh0","primitives":[{"indices":7,"material":0,"attributes":{"POSITION":6}},{"indices":8,"material":1,"attributes":{"POSITION":6}}]},{"name":"Mesh0","primitives":[{"indices":10,"material":3,"attributes":{"POSITION":9}}]}],"accessors":[{"bufferView":0,"componentType":5126,"count":114,"type":"VEC3","min":[-0.1704635,-0.17046341,19.719334],"max":[0.1704634,0.17046344,20.06026]},{"bufferView":1,"componentType":5123,"count":672,"type":"SCALAR"},{"bufferView":2,"componentType":5126,"count":72,"type":"VEC3","min":[-0.118263245,-0.13655862,6.627884],"max":[0.118263245,0.13655862,102.899895]},{"bufferView":3,"componentType":5123,"count":420,"type":"SCALAR"},{"bufferView":4,"componentType":5126,"count":216,"type":"VEC3","min":[3.4860945,-6.1673775,12.491108],"max":[10.127901,-5.600389,12.608219]},{"bufferView":5,"componentType":5123,"count":1284,"type":"SCALAR"},{"bufferView":6,"componentType":5126,"count":482,"type":"VEC3","min":[16.446085,-0.9999997,18.656895],"max":[20.69321,1.0000001,19.42178]},{"bufferView":7,"componentType":5123,"count":864,"type":"SCALAR"},{"bufferView":8,"componentType":5123,"count":2016,"type":"SCALAR"},{"bufferView":9,"componentType":5126,"count":4,"type":"VEC3","min":[-285.59137,-285.59137,0.0],"max":[285.59137,285.59137,0.0]},{"bufferView":10,"componentType":5123,"count":6,"type":"SCALAR"}],"bufferViews":[{"target":34962,"buffer":0,"byteLength":1368,"byteOffset":0},{"target":34963,"buffer":0,"byteLength":1344,"byteOffset":1368},{"target":34962,"buffer":0,"byteLength":864,"byteOffset":2712},{"target":34963,"buffer":0,"byteLength":840,"byteOffset":3576},{"target":34962,"buffer":0,"byteLength":2592,"byteOffset":4416},{"target":34963,"buffer":0,"byteLength":2568,"byteOffset":7008},{"target":34962,"buffer":0,"byteLength":5784,"byteOffset":9576},{"target":34963,"buffer":0,"byteLength":1728,"byteOffset":15360},{"target":34963,"buffer":0,"byteLength":4032,"byteOffset":17088},{"target":34962,"buffer":0,"byteLength":48,"byteOffset":21120},{"target":34963,"buffer":0,"byteLength":12,"byteOffset":21168}],"buffers":[{"byteLength":21180,"uri":"data:application/octet-stream;base64,"}]}