{
	"asset":{
		"generator":"Khronos glTF Blender I/O v4.2.57",
		"version":"2.0"
	},
	"extensionsUsed":[
		"KHR_materials_specular"
	],
	"scene":0,
	"scenes":[
		{
			"name":"Scene",
			"nodes":[
				0,
				1,
				2,
				3,
				4
			]
		}
	],
	"nodes":[
		{
			"mesh":0,
			"name":"DrawCall_1244",
			"rotation":[
				-0.6388753056526184,
				0,
				0,
				0.7693102955818176
			],
			"scale":[
				0.02539999969303608,
				0.025400003418326378,
				0.025400003418326378
			],
			"translation":[
				0,
				0.3864438831806183,
				-0.2968255579471588
			]
		},
		{
			"mesh":1,
			"name":"DrawCall_1245",
			"rotation":[
				-0.6388753056526184,
				0,
				0,
				0.7693102955818176
			],
			"scale":[
				0.02539999969303608,
				0.025400003418326378,
				0.025400003418326378
			],
			"translation":[
				0,
				0.3864438831806183,
				-0.2968255579471588
			]
		},
		{
			"mesh":2,
			"name":"DrawCall_1251",
			"rotation":[
				-0.6388753056526184,
				0,
				0,
				0.7693102955818176
			],
			"scale":[
				0.02539999969303608,
				0.025400003418326378,
				0.025400003418326378
			],
			"translation":[
				0,
				0.3864438831806183,
				-0.2968255579471588
			]
		},
		{
			"mesh":3,
			"name":"DrawCall_1252",
			"rotation":[
				-0.6388753056526184,
				0,
				0,
				0.7693102955818176
			],
			"scale":[
				0.02539999969303608,
				0.025400003418326378,
				0.025400003418326378
			],
			"translation":[
				0,
				0.3864438831806183,
				-0.2968255579471588
			]
		},
		{
			"mesh":4,
			"name":"DrawCall_1301",
			"rotation":[
				-0.6388753056526184,
				0,
				0,
				0.7693102955818176
			],
			"scale":[
				0.02539999969303608,
				0.025400003418326378,
				0.025400003418326378
			],
			"translation":[
				0,
				0.3864438831806183,
				-0.2968255579471588
			]
		}
	],
	"materials":[
		{
			"doubleSided":true,
			"extensions":{
				"KHR_materials_specular":{
					"specularFactor":0.4000000059604645
				}
			},
			"name":"8430f8ee.dds",
			"pbrMetallicRoughness":{
				"roughnessFactor":0.858578622341156
			}
		},
		{
			"doubleSided":true,
			"extensions":{
				"KHR_materials_specular":{
					"specularFactor":0.4000000059604645
				}
			},
			"name":"95d3de2c.dds",
			"pbrMetallicRoughness":{
				"roughnessFactor":0.858578622341156
			}
		},
		{
			"doubleSided":true,
			"extensions":{
				"KHR_materials_specular":{
					"specularFactor":0.4000000059604645
				}
			},
			"name":"0588ffb4.dds",
			"pbrMetallicRoughness":{
				"roughnessFactor":0.858578622341156
			}
		}
	],
	"meshes":[
		{
			"name":"Mesh",
			"primitives":[
				{
					"attributes":{
						"POSITION":0,
						"NORMAL":1,
						"TEXCOORD_0":2,
						"TEXCOORD_1":3,
						"TEXCOORD_2":4,
						"TEXCOORD_3":5,
						"TEXCOORD_4":6,
						"TEXCOORD_5":7,
						"TEXCOORD_6":8,
						"TEXCOORD_7":9
					},
					"indices":10,
					"material":0
				}
			]
		},
		{
			"name":"Mesh.001",
			"primitives":[
				{
					"attributes":{
						"POSITION":11,
						"NORMAL":12,
						"TEXCOORD_0":13,
						"TEXCOORD_1":14,
						"TEXCOORD_2":15,
						"TEXCOORD_3":16,
						"TEXCOORD_4":17,
						"TEXCOORD_5":18,
						"TEXCOORD_6":19,
						"TEXCOORD_7":20
					},
					"indices":21,
					"material":0
				}
			]
		},
		{
			"name":"Mesh.002",
			"primitives":[
				{
					"attributes":{
						"POSITION":22,
						"NORMAL":23,
						"TEXCOORD_0":24,
						"TEXCOORD_1":25,
						"TEXCOORD_2":26,
						"TEXCOORD_3":27,
						"TEXCOORD_4":28,
						"TEXCOORD_5":29,
						"TEXCOORD_6":30,
						"TEXCOORD_7":31
					},
					"indices":32,
					"material":1
				}
			]
		},
		{
			"name":"Mesh.003",
			"primitives":[
				{
					"attributes":{
						"POSITION":33,
						"NORMAL":34,
						"TEXCOORD_0":35,
						"TEXCOORD_1":36,
						"TEXCOORD_2":37,
						"TEXCOORD_3":38,
						"TEXCOORD_4":39,
						"TEXCOORD_5":40,
						"TEXCOORD_6":41,
						"TEXCOORD_7":42
					},
					"indices":43,
					"material":1
				}
			]
		},
		{
			"name":"Mesh.004",
			"primitives":[
				{
					"attributes":{
						"POSITION":44,
						"NORMAL":45,
						"TEXCOORD_0":46,
						"TEXCOORD_1":47,
						"TEXCOORD_2":48,
						"TEXCOORD_3":49,
						"TEXCOORD_4":50,
						"TEXCOORD_5":51,
						"TEXCOORD_6":52,
						"TEXCOORD_7":53
					},
					"indices":54,
					"material":2
				}
			]
		}
	],
	"accessors":[
		{
			"bufferView":0,
			"componentType":5126,
			"count":14906,
			"max":[
				1.8684598207473755,
				2.5890743732452393,
				-11.578102111816406
			],
			"min":[
				-1.4314208030700684,
				-5.450128555297852,
				-14.321756362915039
			],
			"type":"VEC3"
		},
		{
			"bufferView":1,
			"componentType":5126,
			"count":14906,
			"type":"VEC3"
		},
		{
			"bufferView":2,
			"componentType":5126,
			"count":14906,
			"type":"VEC2"
		},
		{
			"bufferView":3,
			"componentType":5126,
			"count":14906,
			"type":"VEC2"
		},
		{
			"bufferView":4,
			"componentType":5126,
			"count":14906,
			"type":"VEC2"
		},
		{
			"bufferView":5,
			"componentType":5126,
			"count":14906,
			"type":"VEC2"
		},
		{
			"bufferView":6,
			"componentType":5126,
			"count":14906,
			"type":"VEC2"
		},
		{
			"bufferView":7,
			"componentType":5126,
			"count":14906,
			"type":"VEC2"
		},
		{
			"bufferView":8,
			"componentType":5126,
			"count":14906,
			"type":"VEC2"
		},
		{
			"bufferView":9,
			"componentType":5126,
			"count":14906,
			"type":"VEC2"
		},
		{
			"bufferView":10,
			"componentType":5123,
			"count":29883,
			"type":"SCALAR"
		},
		{
			"bufferView":11,
			"componentType":5126,
			"count":18834,
			"max":[
				2.170971393585205,
				4.191695690155029,
				-13.717233657836914
			],
			"min":[
				-1.7377510070800781,
				-3.1711907386779785,
				-15.72201919555664
			],
			"type":"VEC3"
		},
		{
			"bufferView":12,
			"componentType":5126,
			"count":18834,
			"type":"VEC3"
		},
		{
			"bufferView":13,
			"componentType":5126,
			"count":18834,
			"type":"VEC2"
		},
		{
			"bufferView":14,
			"componentType":5126,
			"count":18834,
			"type":"VEC2"
		},
		{
			"bufferView":15,
			"componentType":5126,
			"count":18834,
			"type":"VEC2"
		},
		{
			"bufferView":16,
			"componentType":5126,
			"count":18834,
			"type":"VEC2"
		},
		{
			"bufferView":17,
			"componentType":5126,
			"count":18834,
			"type":"VEC2"
		},
		{
			"bufferView":18,
			"componentType":5126,
			"count":18834,
			"type":"VEC2"
		},
		{
			"bufferView":19,
			"componentType":5126,
			"count":18834,
			"type":"VEC2"
		},
		{
			"bufferView":20,
			"componentType":5126,
			"count":18834,
			"type":"VEC2"
		},
		{
			"bufferView":21,
			"componentType":5123,
			"count":35304,
			"type":"SCALAR"
		},
		{
			"bufferView":22,
			"componentType":5126,
			"count":327,
			"max":[
				2.0767321586608887,
				3.0611395835876465,
				-13.845266342163086
			],
			"min":[
				1.287679672241211,
				-2.8124537467956543,
				-15.791566848754883
			],
			"type":"VEC3"
		},
		{
			"bufferView":23,
			"componentType":5126,
			"count":327,
			"type":"VEC3"
		},
		{
			"bufferView":24,
			"componentType":5126,
			"count":327,
			"type":"VEC2"
		},
		{
			"bufferView":25,
			"componentType":5126,
			"count":327,
			"type":"VEC2"
		},
		{
			"bufferView":26,
			"componentType":5126,
			"count":327,
			"type":"VEC2"
		},
		{
			"bufferView":27,
			"componentType":5126,
			"count":327,
			"type":"VEC2"
		},
		{
			"bufferView":28,
			"componentType":5126,
			"count":327,
			"type":"VEC2"
		},
		{
			"bufferView":29,
			"componentType":5126,
			"count":327,
			"type":"VEC2"
		},
		{
			"bufferView":30,
			"componentType":5126,
			"count":327,
			"type":"VEC2"
		},
		{
			"bufferView":31,
			"componentType":5126,
			"count":327,
			"type":"VEC2"
		},
		{
			"bufferView":32,
			"componentType":5123,
			"count":552,
			"type":"SCALAR"
		},
		{
			"bufferView":33,
			"componentType":5126,
			"count":325,
			"max":[
				-0.8653196096420288,
				2.967867612838745,
				-13.828378677368164
			],
			"min":[
				-1.654336929321289,
				-2.9057059288024902,
				-15.774717330932617
			],
			"type":"VEC3"
		},
		{
			"bufferView":34,
			"componentType":5126,
			"count":325,
			"type":"VEC3"
		},
		{
			"bufferView":35,
			"componentType":5126,
			"count":325,
			"type":"VEC2"
		},
		{
			"bufferView":36,
			"componentType":5126,
			"count":325,
			"type":"VEC2"
		},
		{
			"bufferView":37,
			"componentType":5126,
			"count":325,
			"type":"VEC2"
		},
		{
			"bufferView":38,
			"componentType":5126,
			"count":325,
			"type":"VEC2"
		},
		{
			"bufferView":39,
			"componentType":5126,
			"count":325,
			"type":"VEC2"
		},
		{
			"bufferView":40,
			"componentType":5126,
			"count":325,
			"type":"VEC2"
		},
		{
			"bufferView":41,
			"componentType":5126,
			"count":325,
			"type":"VEC2"
		},
		{
			"bufferView":42,
			"componentType":5126,
			"count":325,
			"type":"VEC2"
		},
		{
			"bufferView":43,
			"componentType":5123,
			"count":552,
			"type":"SCALAR"
		},
		{
			"bufferView":44,
			"componentType":5126,
			"count":117,
			"max":[
				1.1624360084533691,
				1.242640495300293,
				-13.154102325439453
			],
			"min":[
				-0.6532987952232361,
				-1.2328691482543945,
				-13.591255187988281
			],
			"type":"VEC3"
		},
		{
			"bufferView":45,
			"componentType":5126,
			"count":117,
			"type":"VEC3"
		},
		{
			"bufferView":46,
			"componentType":5126,
			"count":117,
			"type":"VEC2"
		},
		{
			"bufferView":47,
			"componentType":5126,
			"count":117,
			"type":"VEC2"
		},
		{
			"bufferView":48,
			"componentType":5126,
			"count":117,
			"type":"VEC2"
		},
		{
			"bufferView":49,
			"componentType":5126,
			"count":117,
			"type":"VEC2"
		},
		{
			"bufferView":50,
			"componentType":5126,
			"count":117,
			"type":"VEC2"
		},
		{
			"bufferView":51,
			"componentType":5126,
			"count":117,
			"type":"VEC2"
		},
		{
			"bufferView":52,
			"componentType":5126,
			"count":117,
			"type":"VEC2"
		},
		{
			"bufferView":53,
			"componentType":5126,
			"count":117,
			"type":"VEC2"
		},
		{
			"bufferView":54,
			"componentType":5123,
			"count":198,
			"type":"SCALAR"
		}
	],
	"bufferViews":[
		{
			"buffer":0,
			"byteLength":178872,
			"byteOffset":0,
			"target":34962
		},
		{
			"buffer":0,
			"byteLength":178872,
			"byteOffset":178872,
			"target":34962
		},
		{
			"buffer":0,
			"byteLength":119248,
			"byteOffset":357744,
			"target":34962
		},
		{
			"buffer":0,
			"byteLength":119248,
			"byteOffset":476992,
			"target":34962
		},
		{
			"buffer":0,
			"byteLength":119248,
			"byteOffset":596240,
			"target":34962
		},
		{
			"buffer":0,
			"byteLength":119248,
			"byteOffset":715488,
			"target":34962
		},
		{
			"buffer":0,
			"byteLength":119248,
			"byteOffset":834736,
			"target":34962
		},
		{
			"buffer":0,
			"byteLength":119248,
			"byteOffset":953984,
			"target":34962
		},
		{
			"buffer":0,
			"byteLength":119248,
			"byteOffset":1073232,
			"target":34962
		},
		{
			"buffer":0,
			"byteLength":119248,
			"byteOffset":1192480,
			"target":34962
		},
		{
			"buffer":0,
			"byteLength":59766,
			"byteOffset":1311728,
			"target":34963
		},
		{
			"buffer":0,
			"byteLength":226008,
			"byteOffset":1371496,
			"target":34962
		},
		{
			"buffer":0,
			"byteLength":226008,
			"byteOffset":1597504,
			"target":34962
		},
		{
			"buffer":0,
			"byteLength":150672,
			"byteOffset":1823512,
			"target":34962
		},
		{
			"buffer":0,
			"byteLength":150672,
			"byteOffset":1974184,
			"target":34962
		},
		{
			"buffer":0,
			"byteLength":150672,
			"byteOffset":2124856,
			"target":34962
		},
		{
			"buffer":0,
			"byteLength":150672,
			"byteOffset":2275528,
			"target":34962
		},
		{
			"buffer":0,
			"byteLength":150672,
			"byteOffset":2426200,
			"target":34962
		},
		{
			"buffer":0,
			"byteLength":150672,
			"byteOffset":2576872,
			"target":34962
		},
		{
			"buffer":0,
			"byteLength":150672,
			"byteOffset":2727544,
			"target":34962
		},
		{
			"buffer":0,
			"byteLength":150672,
			"byteOffset":2878216,
			"target":34962
		},
		{
			"buffer":0,
			"byteLength":70608,
			"byteOffset":3028888,
			"target":34963
		},
		{
			"buffer":0,
			"byteLength":3924,
			"byteOffset":3099496,
			"target":34962
		},
		{
			"buffer":0,
			"byteLength":3924,
			"byteOffset":3103420,
			"target":34962
		},
		{
			"buffer":0,
			"byteLength":2616,
			"byteOffset":3107344,
			"target":34962
		},
		{
			"buffer":0,
			"byteLength":2616,
			"byteOffset":3109960,
			"target":34962
		},
		{
			"buffer":0,
			"byteLength":2616,
			"byteOffset":3112576,
			"target":34962
		},
		{
			"buffer":0,
			"byteLength":2616,
			"byteOffset":3115192,
			"target":34962
		},
		{
			"buffer":0,
			"byteLength":2616,
			"byteOffset":3117808,
			"target":34962
		},
		{
			"buffer":0,
			"byteLength":2616,
			"byteOffset":3120424,
			"target":34962
		},
		{
			"buffer":0,
			"byteLength":2616,
			"byteOffset":3123040,
			"target":34962
		},
		{
			"buffer":0,
			"byteLength":2616,
			"byteOffset":3125656,
			"target":34962
		},
		{
			"buffer":0,
			"byteLength":1104,
			"byteOffset":3128272,
			"target":34963
		},
		{
			"buffer":0,
			"byteLength":3900,
			"byteOffset":3129376,
			"target":34962
		},
		{
			"buffer":0,
			"byteLength":3900,
			"byteOffset":3133276,
			"target":34962
		},
		{
			"buffer":0,
			"byteLength":2600,
			"byteOffset":3137176,
			"target":34962
		},
		{
			"buffer":0,
			"byteLength":2600,
			"byteOffset":3139776,
			"target":34962
		},
		{
			"buffer":0,
			"byteLength":2600,
			"byteOffset":3142376,
			"target":34962
		},
		{
			"buffer":0,
			"byteLength":2600,
			"byteOffset":3144976,
			"target":34962
		},
		{
			"buffer":0,
			"byteLength":2600,
			"byteOffset":3147576,
			"target":34962
		},
		{
			"buffer":0,
			"byteLength":2600,
			"byteOffset":3150176,
			"target":34962
		},
		{
			"buffer":0,
			"byteLength":2600,
			"byteOffset":3152776,
			"target":34962
		},
		{
			"buffer":0,
			"byteLength":2600,
			"byteOffset":3155376,
			"target":34962
		},
		{
			"buffer":0,
			"byteLength":1104,
			"byteOffset":3157976,
			"target":34963
		},
		{
			"buffer":0,
			"byteLength":1404,
			"byteOffset":3159080,
			"target":34962
		},
		{
			"buffer":0,
			"byteLength":1404,
			"byteOffset":3160484,
			"target":34962
		},
		{
			"buffer":0,
			"byteLength":936,
			"byteOffset":3161888,
			"target":34962
		},
		{
			"buffer":0,
			"byteLength":936,
			"byteOffset":3162824,
			"target":34962
		},
		{
			"buffer":0,
			"byteLength":936,
			"byteOffset":3163760,
			"target":34962
		},
		{
			"buffer":0,
			"byteLength":936,
			"byteOffset":3164696,
			"target":34962
		},
		{
			"buffer":0,
			"byteLength":936,
			"byteOffset":3165632,
			"target":34962
		},
		{
			"buffer":0,
			"byteLength":936,
			"byteOffset":3166568,
			"target":34962
		},
		{
			"buffer":0,
			"byteLength":936,
			"byteOffset":3167504,
			"target":34962
		},
		{
			"buffer":0,
			"byteLength":936,
			"byteOffset":3168440,
			"target":34962
		},
		{
			"buffer":0,
			"byteLength":396,
			"byteOffset":3169376,
			"target":34963
		}
	],
	"buffers":[
		{
			"byteLength":3169772,
			"uri":"t-90a.bin"
		}
	]
}
